Coordinates
version=1
nRows=54
nColumns=12
inDegrees=yes

Units are S.I. units (second, meters, Newtons, ...)
Angles are in degrees

endheader
time	SC_y	SC_z	SC_x	AC_y	AC_z	AC_x	GH_y	GH_z	GH_yy	EL_x	PS_y
       0.0              -44.56         -1.554          6.229          46.79         -3.054          18.29          107.6          64.51         -164.6          66.01          36.32
   0.02555              -44.56         -1.548          6.233           46.8         -3.055          18.29          107.6          64.51         -164.6           66.0          36.32
    0.0511              -44.56         -1.542          6.238           46.8         -3.057          18.28          107.6          64.51         -164.5           66.0          36.32
   0.07664              -44.56         -1.535          6.242           46.8         -3.058          18.27          107.6          64.52         -164.5          65.99          36.32
    0.1022              -44.56         -1.528          6.247           46.8         -3.059          18.27          107.6          64.52         -164.5          65.99          36.32
    0.1277              -44.55         -1.521          6.253           46.8         -3.061          18.26          107.6          64.52         -164.4          65.98          36.32
    0.1533              -44.55         -1.513          6.258           46.8         -3.062          18.25          107.5          64.53         -164.4          65.97          36.32
    0.1788              -44.55         -1.504          6.265           46.8         -3.064          18.25          107.5          64.53         -164.3          65.97          36.31
    0.2044              -44.55         -1.495          6.271           46.8         -3.066          18.24          107.5          64.53         -164.3          65.96          36.31
    0.2299              -44.55         -1.485          6.278           46.8         -3.068          18.23          107.5          64.54         -164.3          65.95          36.31
    0.2555              -44.54         -1.475          6.286           46.8          -3.07          18.22          107.4          64.54         -164.2          65.95          36.31
     0.281              -44.54         -1.463          6.294          46.81         -3.072          18.21          107.4          64.55         -164.1          65.94           36.3
    0.3066              -44.54         -1.451          6.302          46.81         -3.074           18.2          107.4          64.55         -164.1          65.93           36.3
    0.3321              -44.54         -1.438          6.312          46.81         -3.077          18.19          107.4          64.56         -164.0          65.92           36.3
    0.3577              -44.53         -1.423          6.322          46.81          -3.08          18.17          107.3          64.57         -163.9          65.91           36.3
    0.3832              -44.53         -1.408          6.333          46.81         -3.083          18.16          107.3          64.57         -163.9          65.89          36.29
    0.4088              -44.53         -1.391          6.345          46.82         -3.086          18.14          107.2          64.58         -163.8          65.88          36.29
    0.4343              -44.52         -1.373          6.358          46.82          -3.09          18.13          107.2          64.59         -163.7          65.87          36.28
    0.4599              -44.52         -1.353          6.372          46.82         -3.094          18.11          107.1           64.6         -163.6          65.85          36.28
    0.4854              -44.51         -1.331          6.388          46.82         -3.098          18.09          107.1          64.61         -163.5          65.84          36.27
     0.511              -44.51         -1.307          6.405          46.83         -3.103          18.07          107.0          64.62         -163.3          65.82          36.27
    0.5365               -44.5          -1.28          6.424          46.83         -3.108          18.04          106.9          64.63         -163.2           65.8          36.26
    0.5621               -44.5         -1.251          6.445          46.83         -3.114          18.02          106.9          64.64         -163.1          65.78          36.26
    0.5876              -44.49         -1.218          6.468          46.84          -3.12          17.99          106.8          64.66         -162.9          65.75          36.25
    0.6131              -44.48         -1.182          6.493          46.84         -3.127          17.96          106.7          64.67         -162.7          65.72          36.24
    0.6387              -44.48         -1.142          6.522          46.85         -3.135          17.92          106.6          64.69         -162.5          65.69          36.23
    0.6642              -44.47         -1.097          6.554          46.85         -3.144          17.88          106.5          64.71         -162.3          65.66          36.22
    0.6898              -44.46         -1.046           6.59          46.86         -3.154          17.83          106.3          64.73         -162.0          65.62          36.21
    0.7153              -44.44         -0.989          6.631          46.87         -3.165          17.78          106.2          64.76         -161.7          65.58           36.2
    0.7409              -44.43        -0.9239          6.677          46.88         -3.178          17.73          106.0          64.79         -161.4          65.53          36.18
    0.7664              -44.41        -0.8497           6.73          46.89         -3.192          17.66          105.8          64.82         -161.0          65.47          36.17
     0.792               -44.4        -0.7644          6.791           46.9         -3.209          17.58          105.6          64.86         -160.6          65.41          36.15
    0.8175              -44.38         -0.666          6.861          46.91         -3.228          17.49          105.4           64.9         -160.1          65.33          36.12
    0.8431              -44.35        -0.5517          6.942          46.92         -3.251          17.39          105.1          64.95         -159.5          65.25           36.1
    0.8686              -44.32        -0.4179          7.037          46.94         -3.277          17.27          104.7          65.01         -158.8          65.14          36.07
    0.8942              -44.29        -0.2602          7.149          46.96         -3.308          17.13          104.3          65.08         -158.0          65.02          36.03
    0.9197              -44.25       -0.07272          7.283          46.99         -3.345          16.96          103.9          65.17         -157.1          64.88          35.99
    0.9453               -44.2          0.152          7.442          47.02         -3.389          16.76          103.3          65.26         -155.9          64.71          35.94
    0.9708              -44.15         0.4238          7.636          47.05         -3.442          16.51          102.6          65.39         -154.6          64.51          35.88
    0.9964              -44.08         0.7558          7.872          47.09         -3.507          16.22          101.7          65.53         -152.9          64.25           35.8
     1.022              -43.99          1.166          8.163          47.15         -3.588          15.85          100.7          65.71         -150.8          63.94          35.71
     1.047              -43.88          1.677          8.527          47.21         -3.688          15.39          99.38          65.94         -148.2          63.56           35.6
     1.073              -43.75           2.32          8.985           47.3         -3.814          14.81          97.73          66.23         -144.9          63.07          35.45
     1.099              -43.58          3.139          9.567           47.4         -3.975          14.08          95.63          66.59         -140.8          62.45          35.27
     1.124              -43.36          4.186          10.31          47.54          -4.18          13.14          92.95          67.05         -135.5          61.65          35.03
      1.15              -43.08          5.531          11.27          47.71         -4.444          11.93          89.51          67.65         -128.6          60.63          34.73
     1.175              -42.72          7.248          12.49          47.93         -4.781          10.39          85.11          68.41         -119.9          59.33          34.34
     1.201              -42.26          9.407          14.02          48.21         -5.204          8.449          79.58          69.37         -109.0           57.7          33.86
     1.226              -41.71          12.04           15.9          48.55          -5.72          6.087          72.84          70.53         -95.59           55.7          33.26
     1.252              -41.07          15.09          18.06          48.95         -6.319          3.348          65.03          71.89         -80.11          53.39          32.58
     1.277              -40.38          18.39          20.41          49.38         -6.966         0.3833          56.58          73.35         -63.34          50.88          31.83
     1.303              -39.69          21.69          22.76          49.81         -7.614         -2.582          48.12          74.81         -46.58          48.38          31.09
     1.328              -39.05          24.74          24.93           50.2         -8.212          -5.32          40.31          76.17          -31.1          46.07           30.4
     1.354               -38.5          27.37           26.8          50.54         -8.728         -7.683          33.57          77.33         -17.74          44.07          29.81
